# MagicaVoxel @ ephtracy

# material
mtllib fountain.mtl
usemtl palette

# normals
vn -1 0 0
vn 1 0 0
vn 0 0 1
vn 0 0 -1
vn 0 -1 0
vn 0 1 0

# texcoords
vt 0.224609 0.5
vt 0.251953 0.5
vt 0.255859 0.5
vt 0.283203 0.5
vt 0.287109 0.5

# verts
v -10 0 10
v -10 0 -10
v -10 5 10
v -10 5 2
v -10 5 -2
v -10 5 -10
v -10 8 10
v -10 8 2
v -10 8 -2
v -10 8 -10
v -6 1 5
v -6 1 2
v -6 1 1
v -6 1 -1
v -6 1 -2
v -6 1 -5
v -6 2 5
v -6 2 2
v -6 2 1
v -6 2 -1
v -6 2 -2
v -6 2 -5
v 7 4 9
v 7 4 7
v 7 4 -7
v 7 4 -9
v 7 5 9
v 7 5 7
v 7 5 -7
v 7 5 -9
v 8 1 1
v 8 1 -1
v 8 2 1
v 8 2 -1
v 8 5 9
v 8 5 8
v 8 5 -8
v 8 5 -9
v 8 6 9
v 8 6 8
v 8 6 -8
v 8 6 -9
v 9 1 5
v 9 1 2
v 9 1 -2
v 9 1 -5
v 9 2 5
v 9 2 2
v 9 2 -2
v 9 2 -5
v 9 4 7
v 9 4 -0
v 9 4 -1
v 9 4 -7
v 9 5 8
v 9 5 7
v 9 5 2
v 9 5 -2
v 9 5 -7
v 9 5 -8
v 9 6 9
v 9 6 8
v 9 6 -8
v 9 6 -9
v 9 8 9
v 9 8 2
v 9 8 -2
v 9 8 -9
v -9 1 5
v -9 1 2
v -9 1 -2
v -9 1 -5
v -9 2 5
v -9 2 2
v -9 2 -2
v -9 2 -5
v -9 4 7
v -9 4 -0
v -9 4 -1
v -9 4 -2
v -9 4 -7
v -9 5 8
v -9 5 7
v -9 5 2
v -9 5 -2
v -9 5 -7
v -9 5 -8
v -9 6 9
v -9 6 8
v -9 6 -8
v -9 6 -9
v -9 8 9
v -9 8 2
v -9 8 -2
v -9 8 -9
v -8 1 1
v -8 1 -1
v -8 2 1
v -8 2 -1
v -8 5 9
v -8 5 8
v -8 5 -8
v -8 5 -9
v -8 6 9
v -8 6 8
v -8 6 -8
v -8 6 -9
v -7 4 9
v -7 4 7
v -7 4 -7
v -7 4 -8
v -7 4 -9
v -7 5 9
v -7 5 7
v -7 5 -7
v -7 5 -9
v 6 1 5
v 6 1 2
v 6 1 1
v 6 1 -1
v 6 1 -2
v 6 1 -5
v 6 2 5
v 6 2 2
v 6 2 1
v 6 2 -1
v 6 2 -2
v 6 2 -5
v 10 0 10
v 10 0 -10
v 10 5 10
v 10 5 2
v 10 5 -2
v 10 5 -10
v 10 8 10
v 10 8 2
v 10 8 -2
v 10 8 -10
v -10 0 10
v -10 5 10
v -10 8 10
v -2 5 10
v -2 8 10
v 2 5 10
v 2 8 10
v 10 0 10
v 10 5 10
v 10 8 10
v -9 1 2
v -9 2 2
v -6 1 2
v -6 2 2
v 6 1 2
v 6 2 2
v 9 1 2
v 9 2 2
v -8 1 -1
v -8 2 -1
v -6 1 -1
v -6 2 -1
v 6 1 -1
v 6 2 -1
v 8 1 -1
v 8 2 -1
v -9 1 -5
v -9 2 -5
v -6 1 -5
v -6 2 -5
v 6 1 -5
v 6 2 -5
v 9 1 -5
v 9 2 -5
v -9 4 -7
v -9 5 -7
v -8 4 -7
v -7 4 -7
v -7 5 -7
v 7 4 -7
v 7 5 -7
v 9 4 -7
v 9 5 -7
v -9 5 -8
v -9 6 -8
v -8 5 -8
v -8 6 -8
v 8 5 -8
v 8 6 -8
v 9 5 -8
v 9 6 -8
v -9 6 -9
v -9 8 -9
v -8 5 -9
v -8 6 -9
v -7 4 -9
v -7 5 -9
v -6 4 -9
v -4 4 -9
v -2 5 -9
v -2 8 -9
v -1 4 -9
v 2 5 -9
v 2 8 -9
v 4 4 -9
v 5 4 -9
v 7 4 -9
v 7 5 -9
v 8 5 -9
v 8 6 -9
v 9 6 -9
v 9 8 -9
v -9 6 9
v -9 8 9
v -8 5 9
v -8 6 9
v -7 4 9
v -7 5 9
v -2 5 9
v -2 8 9
v 2 5 9
v 2 8 9
v 4 4 9
v 6 4 9
v 7 4 9
v 7 5 9
v 8 5 9
v 8 6 9
v 9 6 9
v 9 8 9
v -9 5 8
v -9 6 8
v -8 5 8
v -8 6 8
v 8 5 8
v 8 6 8
v 9 5 8
v 9 6 8
v -9 4 7
v -9 5 7
v -7 4 7
v -7 5 7
v 7 4 7
v 7 5 7
v 9 4 7
v 9 5 7
v -9 1 5
v -9 2 5
v -6 1 5
v -6 2 5
v 6 1 5
v 6 2 5
v 9 1 5
v 9 2 5
v -8 1 1
v -8 2 1
v -6 1 1
v -6 2 1
v 6 1 1
v 6 2 1
v 8 1 1
v 8 2 1
v -9 1 -2
v -9 2 -2
v -6 1 -2
v -6 2 -2
v 6 1 -2
v 6 2 -2
v 9 1 -2
v 9 2 -2
v -10 0 -10
v -10 5 -10
v -10 8 -10
v -2 5 -10
v -2 8 -10
v 2 5 -10
v 2 8 -10
v 10 0 -10
v 10 5 -10
v 10 8 -10
v -10 0 10
v 10 0 10
v -9 0 9
v 9 0 9
v -9 0 -9
v 9 0 -9
v -10 0 -10
v 10 0 -10
v -9 2 5
v -6 2 5
v 6 2 5
v 9 2 5
v -9 2 2
v -6 2 2
v 6 2 2
v 9 2 2
v -8 2 1
v -6 2 1
v 6 2 1
v 8 2 1
v -8 2 -1
v -6 2 -1
v 6 2 -1
v 8 2 -1
v -9 2 -2
v -6 2 -2
v 6 2 -2
v 9 2 -2
v -9 2 -5
v -6 2 -5
v 6 2 -5
v 9 2 -5
v -9 1 5
v -6 1 5
v 6 1 5
v 9 1 5
v -9 1 2
v -6 1 2
v 6 1 2
v 9 1 2
v -8 1 1
v -6 1 1
v 6 1 1
v 8 1 1
v -8 1 -1
v -6 1 -1
v 6 1 -1
v 8 1 -1
v -9 1 -2
v -6 1 -2
v 6 1 -2
v 9 1 -2
v -9 1 -5
v -6 1 -5
v 6 1 -5
v 9 1 -5
v -7 4 9
v 4 4 9
v 6 4 9
v 7 4 9
v -4 4 8
v -3 4 8
v -2 4 8
v 0 4 8
v 1 4 8
v 3 4 8
v 4 4 8
v 6 4 8
v -9 4 7
v -7 4 7
v -5 4 7
v -4 4 7
v -3 4 7
v -2 4 7
v 0 4 7
v 1 4 7
v 3 4 7
v 4 4 7
v 7 4 7
v 9 4 7
v -5 4 6
v -3 4 6
v 0 4 6
v 1 4 6
v 2 4 6
v 3 4 6
v 5 4 6
v 6 4 6
v 7 4 6
v -8 4 5
v -7 4 5
v -5 4 5
v -3 4 5
v 0 4 5
v 1 4 5
v 2 4 5
v 3 4 5
v 4 4 5
v 5 4 5
v 6 4 5
v 7 4 5
v 8 4 5
v -8 4 4
v -7 4 4
v -4 4 4
v -3 4 4
v -2 4 4
v -1 4 4
v 0 4 4
v 2 4 4
v 3 4 4
v 5 4 4
v 6 4 4
v 7 4 4
v -7 4 3
v -6 4 3
v -5 4 3
v -2 4 3
v -1 4 3
v 2 4 3
v 3 4 3
v 5 4 3
v 7 4 3
v 8 4 3
v -7 4 2
v -6 4 2
v -5 4 2
v -4 4 2
v -1 4 2
v 0 4 2
v 2 4 2
v 3 4 2
v 4 4 2
v 6 4 2
v 7 4 2
v 8 4 2
v -7 4 1
v -5 4 1
v -4 4 1
v -2 4 1
v -1 4 1
v 0 4 1
v 2 4 1
v 3 4 1
v 4 4 1
v 5 4 1
v 6 4 1
v 7 4 1
v -9 4 -0
v -7 4 -0
v -5 4 -0
v -4 4 -0
v -1 4 -0
v 0 4 -0
v 1 4 -0
v 2 4 -0
v 3 4 -0
v 4 4 -0
v 5 4 -0
v 7 4 -0
v 9 4 -0
v -9 4 -1
v -7 4 -1
v -6 4 -1
v -5 4 -1
v -4 4 -1
v -3 4 -1
v -2 4 -1
v -1 4 -1
v 1 4 -1
v 2 4 -1
v 3 4 -1
v 5 4 -1
v 7 4 -1
v 9 4 -1
v -9 4 -2
v -7 4 -2
v -6 4 -2
v -5 4 -2
v -4 4 -2
v -3 4 -2
v -1 4 -2
v 1 4 -2
v 2 4 -2
v 3 4 -2
v 5 4 -2
v 7 4 -2
v -5 4 -3
v -4 4 -3
v -3 4 -3
v -2 4 -3
v 0 4 -3
v 1 4 -3
v 2 4 -3
v 5 4 -3
v 7 4 -3
v -4 4 -4
v -3 4 -4
v -2 4 -4
v -1 4 -4
v 0 4 -4
v 1 4 -4
v 3 4 -4
v 4 4 -4
v 5 4 -4
v 6 4 -4
v 8 4 -4
v -6 4 -5
v -5 4 -5
v -4 4 -5
v -1 4 -5
v 0 4 -5
v 1 4 -5
v 2 4 -5
v 5 4 -5
v 6 4 -5
v 7 4 -5
v 8 4 -5
v -8 4 -6
v -7 4 -6
v -5 4 -6
v -4 4 -6
v -3 4 -6
v -2 4 -6
v -1 4 -6
v 0 4 -6
v 2 4 -6
v 3 4 -6
v 4 4 -6
v 5 4 -6
v 6 4 -6
v 7 4 -6
v -9 4 -7
v -8 4 -7
v -7 4 -7
v -6 4 -7
v -5 4 -7
v -4 4 -7
v -3 4 -7
v -2 4 -7
v -1 4 -7
v 0 4 -7
v 1 4 -7
v 2 4 -7
v 4 4 -7
v 5 4 -7
v 6 4 -7
v 7 4 -7
v 9 4 -7
v -7 4 -8
v -6 4 -8
v -5 4 -8
v -4 4 -8
v -3 4 -8
v -2 4 -8
v -1 4 -8
v 0 4 -8
v 1 4 -8
v 4 4 -8
v 5 4 -8
v 6 4 -8
v -7 4 -9
v -6 4 -9
v -4 4 -9
v -1 4 -9
v 4 4 -9
v 5 4 -9
v 7 4 -9
v -8 5 9
v -7 5 9
v 7 5 9
v 8 5 9
v -9 5 8
v -8 5 8
v 8 5 8
v 9 5 8
v -9 5 7
v -7 5 7
v 7 5 7
v 9 5 7
v -9 5 -7
v -7 5 -7
v 7 5 -7
v 9 5 -7
v -9 5 -8
v -8 5 -8
v 8 5 -8
v 9 5 -8
v -8 5 -9
v -7 5 -9
v 7 5 -9
v 8 5 -9
v -9 6 9
v -8 6 9
v 8 6 9
v 9 6 9
v -9 6 8
v -8 6 8
v 8 6 8
v 9 6 8
v -9 6 -8
v -8 6 -8
v 8 6 -8
v 9 6 -8
v -9 6 -9
v -8 6 -9
v 8 6 -9
v 9 6 -9
v -10 8 10
v -2 8 10
v 2 8 10
v 10 8 10
v -9 8 9
v -2 8 9
v 2 8 9
v 9 8 9
v -10 8 2
v -9 8 2
v 9 8 2
v 10 8 2
v -10 8 -2
v -9 8 -2
v 9 8 -2
v 10 8 -2
v -9 8 -9
v -2 8 -9
v 2 8 -9
v 9 8 -9
v -10 8 -10
v -2 8 -10
v 2 8 -10
v 10 8 -10

# faces
f 3/2/1 2/2/1 1/2/1
f 4/2/1 2/2/1 3/2/1
f 5/2/1 2/2/1 4/2/1
f 6/2/1 2/2/1 5/2/1
f 7/4/1 4/4/1 3/4/1
f 8/2/1 5/2/1 4/2/1
f 8/4/1 4/4/1 7/4/1
f 9/4/1 6/4/1 5/4/1
f 9/2/1 5/2/1 8/2/1
f 10/4/1 6/4/1 9/4/1
f 17/5/1 12/5/1 11/5/1
f 18/5/1 12/5/1 17/5/1
f 19/5/1 14/5/1 13/5/1
f 20/5/1 14/5/1 19/5/1
f 21/5/1 16/5/1 15/5/1
f 22/5/1 16/5/1 21/5/1
f 27/2/1 24/2/1 23/2/1
f 28/2/1 24/2/1 27/2/1
f 29/4/1 26/4/1 25/4/1
f 30/4/1 26/4/1 29/4/1
f 33/5/1 32/5/1 31/5/1
f 34/5/1 32/5/1 33/5/1
f 39/4/1 36/4/1 35/4/1
f 40/4/1 36/4/1 39/4/1
f 41/4/1 38/4/1 37/4/1
f 42/4/1 38/4/1 41/4/1
f 47/2/1 44/2/1 43/2/1
f 48/2/1 44/2/1 47/2/1
f 49/2/1 46/2/1 45/2/1
f 50/2/1 46/2/1 49/2/1
f 56/2/1 53/2/1 52/2/1
f 56/2/1 54/2/1 53/2/1
f 56/2/1 52/2/1 51/2/1
f 57/2/1 54/2/1 56/2/1
f 58/2/1 54/2/1 57/2/1
f 59/2/1 54/2/1 58/2/1
f 62/4/1 56/4/1 55/4/1
f 62/4/1 57/4/1 56/4/1
f 63/4/1 60/4/1 59/4/1
f 63/4/1 59/4/1 58/4/1
f 65/4/1 62/4/1 61/4/1
f 66/4/1 57/4/1 62/4/1
f 66/4/1 62/4/1 65/4/1
f 66/2/1 58/2/1 57/2/1
f 67/4/1 64/4/1 63/4/1
f 67/2/1 58/2/1 66/2/1
f 67/4/1 63/4/1 58/4/1
f 68/4/1 64/4/1 67/4/1
f 69/2/2 70/2/2 73/2/2
f 73/2/2 70/2/2 74/2/2
f 71/2/2 72/2/2 75/2/2
f 75/2/2 72/2/2 76/2/2
f 79/2/2 80/2/2 83/2/2
f 80/2/2 81/2/2 83/2/2
f 78/2/2 79/2/2 83/2/2
f 77/2/2 78/2/2 83/2/2
f 83/2/2 81/2/2 84/2/2
f 84/2/2 81/2/2 85/2/2
f 85/2/2 81/2/2 86/2/2
f 82/4/2 83/4/2 89/4/2
f 83/4/2 84/4/2 89/4/2
f 86/4/2 87/4/2 90/4/2
f 85/4/2 86/4/2 90/4/2
f 88/4/2 89/4/2 92/4/2
f 89/4/2 84/4/2 93/4/2
f 92/4/2 89/4/2 93/4/2
f 84/2/2 85/2/2 93/2/2
f 90/4/2 91/4/2 94/4/2
f 93/2/2 85/2/2 94/2/2
f 85/4/2 90/4/2 94/4/2
f 94/4/2 91/4/2 95/4/2
f 96/5/2 97/5/2 98/5/2
f 98/5/2 97/5/2 99/5/2
f 100/4/2 101/4/2 104/4/2
f 104/4/2 101/4/2 105/4/2
f 102/4/2 103/4/2 106/4/2
f 106/4/2 103/4/2 107/4/2
f 108/2/2 109/2/2 113/2/2
f 113/2/2 109/2/2 114/2/2
f 111/4/2 112/4/2 115/4/2
f 110/4/2 111/4/2 115/4/2
f 115/4/2 112/4/2 116/4/2
f 117/5/2 118/5/2 123/5/2
f 123/5/2 118/5/2 124/5/2
f 119/5/2 120/5/2 125/5/2
f 125/5/2 120/5/2 126/5/2
f 121/5/2 122/5/2 127/5/2
f 127/5/2 122/5/2 128/5/2
f 129/2/2 130/2/2 131/2/2
f 131/2/2 130/2/2 132/2/2
f 132/2/2 130/2/2 133/2/2
f 133/2/2 130/2/2 134/2/2
f 131/4/2 132/4/2 135/4/2
f 132/2/2 133/2/2 136/2/2
f 135/4/2 132/4/2 136/4/2
f 133/4/2 134/4/2 137/4/2
f 136/2/2 133/2/2 137/2/2
f 137/4/2 134/4/2 138/4/2
f 142/2/3 140/2/3 139/2/3
f 142/4/3 141/4/3 140/4/3
f 143/4/3 141/4/3 142/4/3
f 144/2/3 142/2/3 139/2/3
f 144/2/3 143/2/3 142/2/3
f 145/2/3 143/2/3 144/2/3
f 146/2/3 144/2/3 139/2/3
f 147/4/3 145/4/3 144/4/3
f 147/2/3 144/2/3 146/2/3
f 148/4/3 145/4/3 147/4/3
f 151/5/3 150/5/3 149/5/3
f 152/5/3 150/5/3 151/5/3
f 155/5/3 154/5/3 153/5/3
f 156/5/3 154/5/3 155/5/3
f 159/5/3 158/5/3 157/5/3
f 160/5/3 158/5/3 159/5/3
f 163/5/3 162/5/3 161/5/3
f 164/5/3 162/5/3 163/5/3
f 167/4/3 166/4/3 165/4/3
f 168/4/3 166/4/3 167/4/3
f 171/4/3 170/4/3 169/4/3
f 172/4/3 170/4/3 171/4/3
f 175/4/3 174/4/3 173/4/3
f 176/4/3 174/4/3 175/4/3
f 177/4/3 174/4/3 176/4/3
f 180/4/3 179/4/3 178/4/3
f 181/4/3 179/4/3 180/4/3
f 184/4/3 183/4/3 182/4/3
f 185/4/3 183/4/3 184/4/3
f 188/4/3 187/4/3 186/4/3
f 189/4/3 187/4/3 188/4/3
f 193/4/3 191/4/3 190/4/3
f 195/4/3 193/4/3 192/4/3
f 196/2/3 195/2/3 194/2/3
f 197/2/3 195/2/3 196/2/3
f 198/4/3 193/4/3 195/4/3
f 198/2/3 195/2/3 197/2/3
f 199/4/3 191/4/3 193/4/3
f 199/4/3 193/4/3 198/4/3
f 200/2/3 198/2/3 197/2/3
f 200/2/3 199/2/3 198/2/3
f 201/2/3 199/2/3 200/2/3
f 202/2/3 199/2/3 201/2/3
f 203/2/3 201/2/3 200/2/3
f 204/2/3 201/2/3 203/2/3
f 205/2/3 201/2/3 204/2/3
f 206/4/3 202/4/3 201/4/3
f 206/2/3 201/2/3 205/2/3
f 207/4/3 202/4/3 206/4/3
f 208/4/3 202/4/3 207/4/3
f 209/4/3 202/4/3 208/4/3
f 210/4/3 202/4/3 209/4/3
f 211/4/4 212/4/4 214/4/4
f 213/4/4 214/4/4 216/4/4
f 216/4/4 214/4/4 217/4/4
f 215/2/4 216/2/4 217/2/4
f 214/4/4 212/4/4 218/4/4
f 217/4/4 214/4/4 218/4/4
f 215/2/4 217/2/4 219/2/4
f 217/2/4 218/2/4 219/2/4
f 219/2/4 218/2/4 220/2/4
f 215/2/4 219/2/4 221/2/4
f 221/2/4 219/2/4 222/2/4
f 222/2/4 219/2/4 223/2/4
f 219/4/4 220/4/4 224/4/4
f 223/2/4 219/2/4 224/2/4
f 224/4/4 220/4/4 225/4/4
f 225/4/4 220/4/4 226/4/4
f 226/4/4 220/4/4 227/4/4
f 227/4/4 220/4/4 228/4/4
f 229/4/4 230/4/4 231/4/4
f 231/4/4 230/4/4 232/4/4
f 233/4/4 234/4/4 235/4/4
f 235/4/4 234/4/4 236/4/4
f 237/2/4 238/2/4 239/2/4
f 239/2/4 238/2/4 240/2/4
f 241/2/4 242/2/4 243/2/4
f 243/2/4 242/2/4 244/2/4
f 245/4/4 246/4/4 247/4/4
f 247/4/4 246/4/4 248/4/4
f 249/4/4 250/4/4 251/4/4
f 251/4/4 250/4/4 252/4/4
f 253/5/4 254/5/4 255/5/4
f 255/5/4 254/5/4 256/5/4
f 257/5/4 258/5/4 259/5/4
f 259/5/4 258/5/4 260/5/4
f 261/5/4 262/5/4 263/5/4
f 263/5/4 262/5/4 264/5/4
f 265/5/4 266/5/4 267/5/4
f 267/5/4 266/5/4 268/5/4
f 269/2/4 270/2/4 272/2/4
f 270/4/4 271/4/4 272/4/4
f 272/4/4 271/4/4 273/4/4
f 269/2/4 272/2/4 274/2/4
f 272/2/4 273/2/4 274/2/4
f 274/2/4 273/2/4 275/2/4
f 269/2/4 274/2/4 276/2/4
f 274/4/4 275/4/4 277/4/4
f 276/2/4 274/2/4 277/2/4
f 277/4/4 275/4/4 278/4/4
f 281/2/5 280/2/5 279/2/5
f 282/2/5 280/2/5 281/2/5
f 283/2/5 281/2/5 279/2/5
f 283/4/5 282/4/5 281/4/5
f 284/2/5 280/2/5 282/2/5
f 284/4/5 282/4/5 283/4/5
f 285/2/5 283/2/5 279/2/5
f 285/2/5 284/2/5 283/2/5
f 286/2/5 280/2/5 284/2/5
f 286/2/5 284/2/5 285/2/5
f 291/5/5 288/5/5 287/5/5
f 292/5/5 288/5/5 291/5/5
f 293/5/5 290/5/5 289/5/5
f 294/5/5 290/5/5 293/5/5
f 299/5/5 296/5/5 295/5/5
f 300/5/5 296/5/5 299/5/5
f 301/5/5 298/5/5 297/5/5
f 302/5/5 298/5/5 301/5/5
f 307/5/5 304/5/5 303/5/5
f 308/5/5 304/5/5 307/5/5
f 309/5/5 306/5/5 305/5/5
f 310/5/5 306/5/5 309/5/5
f 311/4/6 312/4/6 315/4/6
f 315/4/6 312/4/6 316/4/6
f 313/4/6 314/4/6 317/4/6
f 317/4/6 314/4/6 318/4/6
f 319/4/6 320/4/6 323/4/6
f 323/4/6 320/4/6 324/4/6
f 321/4/6 322/4/6 325/4/6
f 325/4/6 322/4/6 326/4/6
f 327/4/6 328/4/6 331/4/6
f 331/4/6 328/4/6 332/4/6
f 329/4/6 330/4/6 333/4/6
f 333/4/6 330/4/6 334/4/6
f 335/5/6 336/5/6 339/5/6
f 339/5/6 336/5/6 340/5/6
f 340/5/6 336/5/6 341/5/6
f 341/5/6 336/5/6 342/5/6
f 342/5/6 336/5/6 343/5/6
f 343/5/6 336/5/6 344/5/6
f 336/1/6 337/1/6 345/1/6
f 344/5/6 336/5/6 345/5/6
f 337/5/6 338/5/6 346/5/6
f 345/1/6 337/1/6 346/1/6
f 335/5/6 339/5/6 348/5/6
f 348/5/6 339/5/6 349/5/6
f 339/1/6 340/1/6 350/1/6
f 349/5/6 339/5/6 350/5/6
f 340/5/6 341/5/6 351/5/6
f 350/1/6 340/1/6 351/1/6
f 341/1/6 342/1/6 352/1/6
f 351/5/6 341/5/6 352/5/6
f 342/5/6 343/5/6 353/5/6
f 352/1/6 342/1/6 353/1/6
f 343/1/6 344/1/6 354/1/6
f 353/5/6 343/5/6 354/5/6
f 344/5/6 345/5/6 355/5/6
f 354/1/6 344/1/6 355/1/6
f 345/5/6 346/5/6 355/5/6
f 355/5/6 346/5/6 356/5/6
f 346/5/6 338/5/6 357/5/6
f 356/5/6 346/5/6 357/5/6
f 348/1/6 349/1/6 359/1/6
f 349/3/6 350/3/6 359/3/6
f 350/3/6 351/3/6 359/3/6
f 352/5/6 353/5/6 360/5/6
f 359/3/6 351/3/6 360/3/6
f 351/5/6 352/5/6 360/5/6
f 353/3/6 354/3/6 361/3/6
f 360/5/6 353/5/6 361/5/6
f 354/5/6 355/5/6 362/5/6
f 361/3/6 354/3/6 362/3/6
f 362/5/6 355/5/6 363/5/6
f 355/3/6 356/3/6 364/3/6
f 363/5/6 355/5/6 364/5/6
f 357/5/6 358/5/6 365/5/6
f 356/5/6 357/5/6 365/5/6
f 365/5/6 358/5/6 366/5/6
f 366/5/6 358/5/6 367/5/6
f 347/5/6 348/5/6 368/5/6
f 348/1/6 359/1/6 369/1/6
f 368/5/6 348/5/6 369/5/6
f 359/5/6 360/5/6 370/5/6
f 369/1/6 359/1/6 370/1/6
f 360/5/6 361/5/6 370/5/6
f 361/5/6 362/5/6 370/5/6
f 370/5/6 362/5/6 371/5/6
f 371/5/6 362/5/6 372/5/6
f 362/1/6 363/1/6 373/1/6
f 372/5/6 362/5/6 373/5/6
f 363/3/6 364/3/6 374/3/6
f 373/1/6 363/1/6 374/1/6
f 364/3/6 356/3/6 375/3/6
f 374/3/6 364/3/6 375/3/6
f 356/5/6 365/5/6 376/5/6
f 375/3/6 356/3/6 376/3/6
f 365/1/6 366/1/6 377/1/6
f 376/5/6 365/5/6 377/5/6
f 366/3/6 367/3/6 378/3/6
f 377/1/6 366/1/6 378/1/6
f 367/5/6 358/5/6 379/5/6
f 378/3/6 367/3/6 379/3/6
f 379/5/6 358/5/6 380/5/6
f 368/1/6 369/1/6 381/1/6
f 347/5/6 368/5/6 381/5/6
f 369/5/6 370/5/6 382/5/6
f 381/1/6 369/1/6 382/1/6
f 370/5/6 371/5/6 382/5/6
f 382/5/6 371/5/6 383/5/6
f 371/1/6 372/1/6 384/1/6
f 383/5/6 371/5/6 384/5/6
f 384/1/6 372/1/6 385/1/6
f 385/1/6 372/1/6 386/1/6
f 373/5/6 374/5/6 387/5/6
f 386/1/6 372/1/6 387/1/6
f 372/5/6 373/5/6 387/5/6
f 374/3/6 375/3/6 388/3/6
f 387/5/6 374/5/6 388/5/6
f 376/5/6 377/5/6 389/5/6
f 388/3/6 375/3/6 389/3/6
f 377/5/6 378/5/6 389/5/6
f 375/5/6 376/5/6 389/5/6
f 389/5/6 378/5/6 390/5/6
f 378/3/6 379/3/6 391/3/6
f 390/5/6 378/5/6 391/5/6
f 379/1/6 380/1/6 392/1/6
f 391/3/6 379/3/6 392/3/6
f 382/1/6 383/1/6 393/1/6
f 381/5/6 382/5/6 393/5/6
f 393/1/6 383/1/6 394/1/6
f 394/1/6 383/1/6 395/1/6
f 385/3/6 386/3/6 396/3/6
f 384/5/6 385/5/6 396/5/6
f 383/5/6 384/5/6 396/5/6
f 387/5/6 388/5/6 397/5/6
f 396/3/6 386/3/6 397/3/6
f 386/5/6 387/5/6 397/5/6
f 388/5/6 389/5/6 397/5/6
f 397/5/6 389/5/6 398/5/6
f 389/3/6 390/3/6 399/3/6
f 398/5/6 389/5/6 399/5/6
f 390/5/6 391/5/6 400/5/6
f 399/3/6 390/3/6 400/3/6
f 391/5/6 392/5/6 400/5/6
f 392/1/6 380/1/6 401/1/6
f 400/5/6 392/5/6 401/5/6
f 380/5/6 358/5/6 402/5/6
f 401/1/6 380/1/6 402/1/6
f 393/3/6 394/3/6 403/3/6
f 381/5/6 393/5/6 403/5/6
f 394/5/6 395/5/6 404/5/6
f 403/3/6 394/3/6 404/3/6
f 395/1/6 383/1/6 405/1/6
f 404/5/6 395/5/6 405/5/6
f 383/5/6 396/5/6 406/5/6
f 405/1/6 383/1/6 406/1/6
f 396/5/6 397/5/6 406/5/6
f 397/5/6 398/5/6 406/5/6
f 406/5/6 398/5/6 407/5/6
f 407/5/6 398/5/6 408/5/6
f 398/1/6 399/1/6 409/1/6
f 408/5/6 398/5/6 409/5/6
f 400/5/6 401/5/6 410/5/6
f 409/1/6 399/1/6 410/1/6
f 399/5/6 400/5/6 410/5/6
f 410/5/6 401/5/6 411/5/6
f 411/5/6 401/5/6 412/5/6
f 401/3/6 402/3/6 413/3/6
f 412/5/6 401/5/6 413/5/6
f 402/5/6 358/5/6 414/5/6
f 413/3/6 402/3/6 414/3/6
f 403/1/6 404/1/6 415/1/6
f 381/5/6 403/5/6 415/5/6
f 404/1/6 405/1/6 415/1/6
f 406/5/6 407/5/6 416/5/6
f 415/1/6 405/1/6 416/1/6
f 405/5/6 406/5/6 416/5/6
f 416/5/6 407/5/6 417/5/6
f 417/5/6 407/5/6 418/5/6
f 407/1/6 408/1/6 419/1/6
f 418/5/6 407/5/6 419/5/6
f 408/5/6 409/5/6 420/5/6
f 419/1/6 408/1/6 420/1/6
f 410/3/6 411/3/6 421/3/6
f 420/5/6 409/5/6 421/5/6
f 409/3/6 410/3/6 421/3/6
f 421/3/6 411/3/6 422/3/6
f 411/5/6 412/5/6 423/5/6
f 422/3/6 411/3/6 423/3/6
f 423/5/6 412/5/6 424/5/6
f 412/3/6 413/3/6 425/3/6
f 424/5/6 412/5/6 425/5/6
f 413/5/6 414/5/6 426/5/6
f 425/3/6 413/3/6 426/3/6
f 381/5/6 415/5/6 427/5/6
f 347/5/6 381/5/6 427/5/6
f 415/5/6 416/5/6 427/5/6
f 427/5/6 416/5/6 428/5/6
f 416/3/6 417/3/6 429/3/6
f 428/5/6 416/5/6 429/5/6
f 417/5/6 418/5/6 430/5/6
f 429/3/6 417/3/6 430/3/6
f 418/1/6 419/1/6 431/1/6
f 419/3/6 420/3/6 431/3/6
f 421/5/6 422/5/6 432/5/6
f 431/3/6 420/3/6 432/3/6
f 420/5/6 421/5/6 432/5/6
f 432/5/6 422/5/6 433/5/6
f 433/5/6 422/5/6 434/5/6
f 422/3/6 423/3/6 435/3/6
f 434/5/6 422/5/6 435/5/6
f 423/1/6 424/1/6 436/1/6
f 435/3/6 423/3/6 436/3/6
f 424/5/6 425/5/6 437/5/6
f 436/1/6 424/1/6 437/1/6
f 425/5/6 426/5/6 437/5/6
f 426/5/6 414/5/6 438/5/6
f 437/5/6 426/5/6 438/5/6
f 414/5/6 358/5/6 439/5/6
f 438/5/6 414/5/6 439/5/6
f 427/3/6 428/3/6 440/3/6
f 428/1/6 429/1/6 441/1/6
f 440/3/6 428/3/6 441/3/6
f 429/1/6 430/1/6 441/1/6
f 441/1/6 430/1/6 442/1/6
f 442/1/6 430/1/6 443/1/6
f 430/5/6 418/5/6 444/5/6
f 443/1/6 430/1/6 444/1/6
f 444/5/6 418/5/6 445/5/6
f 418/1/6 431/1/6 446/1/6
f 445/5/6 418/5/6 446/5/6
f 432/5/6 433/5/6 447/5/6
f 446/1/6 431/1/6 447/1/6
f 431/5/6 432/5/6 447/5/6
f 433/3/6 434/3/6 448/3/6
f 447/5/6 433/5/6 448/5/6
f 436/5/6 437/5/6 449/5/6
f 448/3/6 434/3/6 449/3/6
f 437/5/6 438/5/6 449/5/6
f 435/5/6 436/5/6 449/5/6
f 434/5/6 435/5/6 449/5/6
f 449/5/6 438/5/6 450/5/6
f 450/5/6 438/5/6 451/5/6
f 438/1/6 439/1/6 452/1/6
f 451/5/6 438/5/6 452/5/6
f 452/1/6 439/1/6 453/1/6
f 441/1/6 442/1/6 454/1/6
f 440/1/6 441/1/6 454/1/6
f 454/1/6 442/1/6 455/1/6
f 442/3/6 443/3/6 456/3/6
f 455/1/6 442/1/6 456/1/6
f 443/5/6 444/5/6 457/5/6
f 456/3/6 443/3/6 457/3/6
f 444/3/6 445/3/6 458/3/6
f 457/5/6 444/5/6 458/5/6
f 447/5/6 448/5/6 459/5/6
f 458/3/6 445/3/6 459/3/6
f 445/5/6 446/5/6 459/5/6
f 446/5/6 447/5/6 459/5/6
f 448/5/6 449/5/6 459/5/6
f 449/5/6 450/5/6 459/5/6
f 459/5/6 450/5/6 460/5/6
f 460/5/6 450/5/6 461/5/6
f 461/5/6 450/5/6 462/5/6
f 450/1/6 451/1/6 463/1/6
f 462/5/6 450/5/6 463/5/6
f 452/5/6 453/5/6 464/5/6
f 463/1/6 451/1/6 464/1/6
f 451/5/6 452/5/6 464/5/6
f 464/5/6 453/5/6 465/5/6
f 457/3/6 458/3/6 466/3/6
f 456/5/6 457/5/6 466/5/6
f 458/3/6 459/3/6 466/3/6
f 466/3/6 459/3/6 467/3/6
f 459/1/6 460/1/6 468/1/6
f 467/3/6 459/3/6 468/3/6
f 468/1/6 460/1/6 469/1/6
f 460/5/6 461/5/6 470/5/6
f 461/3/6 462/3/6 471/3/6
f 470/5/6 461/5/6 471/5/6
f 462/1/6 463/1/6 472/1/6
f 471/3/6 462/3/6 472/3/6
f 464/3/6 465/3/6 473/3/6
f 463/5/6 464/5/6 473/5/6
f 465/5/6 453/5/6 474/5/6
f 473/3/6 465/3/6 474/3/6
f 466/5/6 467/5/6 475/5/6
f 467/1/6 468/1/6 475/1/6
f 468/3/6 469/3/6 476/3/6
f 475/1/6 468/1/6 476/1/6
f 469/1/6 460/1/6 477/1/6
f 476/3/6 469/3/6 477/3/6
f 460/5/6 470/5/6 478/5/6
f 477/1/6 460/1/6 478/1/6
f 470/3/6 471/3/6 479/3/6
f 478/5/6 470/5/6 479/5/6
f 471/1/6 472/1/6 480/1/6
f 479/3/6 471/3/6 480/3/6
f 463/5/6 473/5/6 481/5/6
f 480/1/6 472/1/6 481/1/6
f 472/1/6 463/1/6 481/1/6
f 473/5/6 474/5/6 481/5/6
f 481/5/6 474/5/6 482/5/6
f 482/5/6 474/5/6 483/5/6
f 483/5/6 474/5/6 484/5/6
f 474/5/6 453/5/6 485/5/6
f 484/5/6 474/5/6 485/5/6
f 479/5/6 480/5/6 486/5/6
f 477/5/6 478/5/6 486/5/6
f 476/5/6 477/5/6 486/5/6
f 455/3/6 456/3/6 486/3/6
f 466/5/6 475/5/6 486/5/6
f 475/5/6 476/5/6 486/5/6
f 456/5/6 466/5/6 486/5/6
f 478/5/6 479/5/6 486/5/6
f 486/5/6 480/5/6 487/5/6
f 487/5/6 480/5/6 488/5/6
f 488/5/6 480/5/6 489/5/6
f 489/5/6 480/5/6 490/5/6
f 480/3/6 481/3/6 491/3/6
f 490/5/6 480/5/6 491/5/6
f 491/3/6 481/3/6 492/3/6
f 482/1/6 483/1/6 493/1/6
f 483/5/6 484/5/6 493/5/6
f 484/3/6 485/3/6 494/3/6
f 493/5/6 484/5/6 494/5/6
f 494/3/6 485/3/6 495/3/6
f 485/5/6 453/5/6 496/5/6
f 495/3/6 485/3/6 496/3/6
f 454/5/6 455/5/6 497/5/6
f 455/3/6 486/3/6 498/3/6
f 497/5/6 455/5/6 498/5/6
f 486/3/6 487/3/6 498/3/6
f 487/5/6 488/5/6 499/5/6
f 498/3/6 487/3/6 499/3/6
f 488/3/6 489/3/6 500/3/6
f 499/5/6 488/5/6 500/5/6
f 500/3/6 489/3/6 501/3/6
f 501/3/6 489/3/6 502/3/6
f 489/5/6 490/5/6 503/5/6
f 502/3/6 489/3/6 503/3/6
f 491/1/6 492/1/6 504/1/6
f 503/5/6 490/5/6 504/5/6
f 490/1/6 491/1/6 504/1/6
f 492/3/6 481/3/6 505/3/6
f 504/1/6 492/1/6 505/1/6
f 481/5/6 482/5/6 506/5/6
f 505/3/6 481/3/6 506/3/6
f 482/1/6 493/1/6 507/1/6
f 506/5/6 482/5/6 507/5/6
f 494/3/6 495/3/6 508/3/6
f 507/1/6 493/1/6 508/1/6
f 493/3/6 494/3/6 508/3/6
f 508/3/6 495/3/6 509/3/6
f 495/5/6 496/5/6 510/5/6
f 509/3/6 495/3/6 510/3/6
f 454/5/6 497/5/6 511/5/6
f 497/3/6 498/3/6 512/3/6
f 511/5/6 497/5/6 512/5/6
f 498/5/6 499/5/6 513/5/6
f 512/3/6 498/3/6 513/3/6
f 500/5/6 501/5/6 513/5/6
f 499/5/6 500/5/6 513/5/6
f 513/5/6 501/5/6 514/5/6
f 514/5/6 501/5/6 515/5/6
f 515/5/6 501/5/6 516/5/6
f 501/1/6 502/1/6 517/1/6
f 516/5/6 501/5/6 517/5/6
f 503/3/6 504/3/6 518/3/6
f 517/1/6 502/1/6 518/1/6
f 502/3/6 503/3/6 518/3/6
f 518/3/6 504/3/6 519/3/6
f 504/1/6 505/1/6 520/1/6
f 519/3/6 504/3/6 520/3/6
f 520/1/6 505/1/6 521/1/6
f 506/5/6 507/5/6 522/5/6
f 521/1/6 505/1/6 522/1/6
f 505/5/6 506/5/6 522/5/6
f 508/3/6 509/3/6 523/3/6
f 522/5/6 507/5/6 523/5/6
f 507/3/6 508/3/6 523/3/6
f 523/3/6 509/3/6 524/3/6
f 509/5/6 510/5/6 525/5/6
f 524/3/6 509/3/6 525/3/6
f 510/5/6 496/5/6 526/5/6
f 525/5/6 510/5/6 526/5/6
f 496/5/6 453/5/6 527/5/6
f 526/5/6 496/5/6 527/5/6
f 513/1/6 514/1/6 528/1/6
f 514/3/6 515/3/6 529/3/6
f 528/1/6 514/1/6 529/1/6
f 515/5/6 516/5/6 530/5/6
f 529/3/6 515/3/6 530/3/6
f 516/1/6 517/1/6 531/1/6
f 530/5/6 516/5/6 531/5/6
f 517/5/6 518/5/6 532/5/6
f 531/1/6 517/1/6 532/1/6
f 518/3/6 519/3/6 533/3/6
f 532/5/6 518/5/6 533/5/6
f 519/5/6 520/5/6 534/5/6
f 533/3/6 519/3/6 534/3/6
f 520/3/6 521/3/6 535/3/6
f 534/5/6 520/5/6 535/5/6
f 521/5/6 522/5/6 536/5/6
f 535/3/6 521/3/6 536/3/6
f 523/5/6 524/5/6 536/5/6
f 522/5/6 523/5/6 536/5/6
f 536/5/6 524/5/6 537/5/6
f 524/1/6 525/1/6 538/1/6
f 537/5/6 524/5/6 538/5/6
f 525/5/6 526/5/6 539/5/6
f 538/1/6 525/1/6 539/1/6
f 528/5/6 529/5/6 540/5/6
f 529/1/6 530/1/6 541/1/6
f 540/5/6 529/5/6 541/5/6
f 530/1/6 531/1/6 541/1/6
f 533/5/6 534/5/6 542/5/6
f 541/1/6 531/1/6 542/1/6
f 532/5/6 533/5/6 542/5/6
f 531/5/6 532/5/6 542/5/6
f 535/3/6 536/3/6 543/3/6
f 542/5/6 534/5/6 543/5/6
f 536/3/6 537/3/6 543/3/6
f 534/3/6 535/3/6 543/3/6
f 537/1/6 538/1/6 544/1/6
f 543/3/6 537/3/6 544/3/6
f 538/5/6 539/5/6 545/5/6
f 544/1/6 538/1/6 545/1/6
f 539/5/6 526/5/6 546/5/6
f 545/5/6 539/5/6 546/5/6
f 547/2/6 548/2/6 552/2/6
f 549/2/6 550/2/6 553/2/6
f 551/2/6 552/2/6 555/2/6
f 552/2/6 548/2/6 556/2/6
f 555/2/6 552/2/6 556/2/6
f 553/2/6 554/2/6 557/2/6
f 549/2/6 553/2/6 557/2/6
f 557/2/6 554/2/6 558/2/6
f 559/4/6 560/4/6 563/4/6
f 563/4/6 560/4/6 564/4/6
f 561/4/6 562/4/6 565/4/6
f 565/4/6 562/4/6 566/4/6
f 564/4/6 560/4/6 567/4/6
f 567/4/6 560/4/6 568/4/6
f 561/4/6 565/4/6 569/4/6
f 569/4/6 565/4/6 570/4/6
f 571/4/6 572/4/6 575/4/6
f 575/4/6 572/4/6 576/4/6
f 573/4/6 574/4/6 577/4/6
f 577/4/6 574/4/6 578/4/6
f 579/4/6 580/4/6 583/4/6
f 583/4/6 580/4/6 584/4/6
f 581/4/6 582/4/6 585/4/6
f 585/4/6 582/4/6 586/4/6
f 587/4/6 588/4/6 591/4/6
f 588/2/6 589/2/6 592/2/6
f 591/4/6 588/4/6 592/4/6
f 589/4/6 590/4/6 593/4/6
f 592/2/6 589/2/6 593/2/6
f 593/4/6 590/4/6 594/4/6
f 587/4/6 591/4/6 595/4/6
f 595/4/6 591/4/6 596/4/6
f 594/4/6 590/4/6 597/4/6
f 597/4/6 590/4/6 598/4/6
f 595/2/6 596/2/6 599/2/6
f 599/2/6 596/2/6 600/2/6
f 597/2/6 598/2/6 601/2/6
f 601/2/6 598/2/6 602/2/6
f 599/4/6 600/4/6 603/4/6
f 601/4/6 602/4/6 606/4/6
f 599/4/6 603/4/6 607/4/6
f 603/4/6 604/4/6 607/4/6
f 604/2/6 605/2/6 608/2/6
f 607/4/6 604/4/6 608/4/6
f 605/4/6 606/4/6 609/4/6
f 608/2/6 605/2/6 609/2/6
f 606/4/6 602/4/6 610/4/6
f 609/4/6 606/4/6 610/4/6
